<?xml version="1.0" encoding="utf-8"?>
<!-- Generator: Adobe Illustrator 21.0.2, SVG Export Plug-In . SVG Version: 6.00 Build 0)  -->
<svg version="1.1" xmlns="http://www.w3.org/2000/svg" xmlns:xlink="http://www.w3.org/1999/xlink" x="0px" y="0px"
	 viewBox="0 0 792 612" style="enable-background:new 0 0 792 612;" xml:space="preserve">
<style type="text/css">
	.st0{display:none;}
	.st1{display:inline;fill:none;stroke:#000000;stroke-miterlimit:10;}
	.st2{display:inline;fill:#64BF76;stroke:#000000;stroke-miterlimit:10;}
	.st3{display:inline;fill:#ACD79F;stroke:#000000;stroke-miterlimit:10;}
	.st4{display:inline;fill:#75C26E;stroke:#000000;stroke-miterlimit:10;}
	.st5{display:inline;fill:#8BCA88;stroke:#000000;stroke-miterlimit:10;}
	.st6{display:inline;fill:#45AA48;stroke:#000000;stroke-miterlimit:10;}
	.st7{display:inline;fill:#79C143;stroke:#000000;stroke-miterlimit:10;}
	.st8{display:inline;fill:#84C98C;stroke:#000000;stroke-miterlimit:10;}
	.st9{display:inline;fill:#209145;stroke:#000000;stroke-miterlimit:10;}
	.st10{display:inline;fill:#2C783B;stroke:#000000;stroke-miterlimit:10;}
	.st11{display:inline;fill:#9ACD6A;stroke:#000000;stroke-miterlimit:10;}
	.st12{display:inline;fill:#D7EBD5;stroke:#000000;stroke-miterlimit:10;}
	.st13{display:inline;fill:#BDDFBB;stroke:#000000;stroke-miterlimit:10;}
	.st14{display:inline;fill:#369144;stroke:#000000;stroke-miterlimit:10;}
	.st15{display:inline;}
	.st16{fill:none;}
	.st17{fill:#45AA48;}
	.st18{fill:#64BF76;}
	.st19{fill:#ACD79F;}
	.st20{fill:#75C26E;}
	.st21{fill:#8BCA88;}
	.st22{fill:#79C143;}
	.st23{fill:#84C98C;}
	.st24{fill:#209145;}
	.st25{fill:#2C783B;}
	.st26{fill:#9ACD6A;}
	.st27{fill:#369144;}
	.st28{fill:#D7EBD5;}
	.st29{fill:#BDDFBB;}
	.st30{display:inline;fill:none;stroke:#282A2A;stroke-miterlimit:10;}
</style>
<g id="Polygons" class="st0">
	<polygon class="st1" points="460,254.3 571.3,337 417.8,335.4 	"/>
	<polygon class="st1" points="287.7,276.7 460,254.3 387.7,194.3 	"/>
	<polygon class="st1" points="382.3,403.4 460,254.3 287.7,276.7 	"/>
	<polygon class="st1" points="525.7,173.3 460,254.3 577.1,242.7 	"/>
	<polygon class="st1" points="382.3,403.4 254.2,401.4 287.7,276.7 	"/>
	<polygon class="st1" points="287.7,276.7 207.3,252.5 189.8,287.5 261.2,375.2 	"/>
	<polygon class="st1" points="387.7,194.3 287.7,276.7 333.8,110 346.8,111.8 347.3,122.5 	"/>
	<polygon class="st1" points="287.7,276.7 259.7,184.8 207.3,252.5 	"/>
	<polygon class="st1" points="287.7,276.7 259.7,184.8 312.2,104.2 333.2,112.3 	"/>
	<polygon class="st1" points="382.3,403.4 254.2,401.4 354.5,454.5 406.7,454.5 	"/>
	<polygon class="st1" points="330.4,441.8 286.7,418.6 295,446.2 318.2,452.7 	"/>
	<polygon class="st1" points="382.3,403.4 531.3,367.2 506.8,447.7 404.4,449.8 	"/>
	<polygon class="st1" points="571.3,337 590,243.2 575.9,242.8 460,254.3 	"/>
	<polygon class="st1" points="387.7,194.3 426.7,117 349.3,126 	"/>
	<polygon class="st1" points="460,254.3 434.8,120.8 424.4,121.6 387.7,194.3 	"/>
	<polygon class="st1" points="525.7,173.3 460,254.3 434.8,120.8 499.8,119.5 	"/>
	<polygon class="st1" points="382.3,403.4 537.2,365.7 487.3,354.8 404.7,360.8 	"/>
</g>
<g id="Color_in_Polygons" class="st0">
	<polygon class="st2" points="460,254.3 571.3,337 417.8,335.4 	"/>
	<polygon class="st3" points="287.7,276.7 460,254.3 387.7,194.3 	"/>
	<polygon class="st4" points="382.3,403.4 460,254.3 287.7,276.7 	"/>
	<polygon class="st5" points="525.7,173.3 460,254.3 577.1,242.7 	"/>
	<polygon class="st6" points="382.3,403.4 254.2,401.4 287.7,276.7 	"/>
	<polygon class="st7" points="287.7,276.7 207.3,252.5 189.8,287.5 261.2,375.2 	"/>
	<polygon class="st8" points="387.7,194.3 287.7,276.7 333.8,110 346.8,111.8 347.3,122.5 	"/>
	<polygon class="st8" points="287.7,276.7 259.7,184.8 207.3,252.5 	"/>
	<polygon class="st5" points="287.7,276.7 259.7,184.8 312.2,104.2 333.2,112.3 	"/>
	<polygon class="st9" points="382.3,403.4 254.2,401.4 354.5,454.5 406.7,454.5 	"/>
	<polygon class="st10" points="330.4,441.8 286.7,418.6 295,446.2 318.2,452.7 	"/>
	<polygon class="st10" points="382.3,403.4 531.3,367.2 506.8,447.7 404.4,449.8 	"/>
	<polygon class="st11" points="571.3,337 590,243.2 575.9,242.8 460,254.3 	"/>
	<polygon class="st12" points="387.7,194.3 426.7,117 349.3,126 	"/>
	<polygon class="st13" points="460,254.3 434.8,120.8 424.4,121.6 387.7,194.3 	"/>
	<polygon class="st3" points="525.7,173.3 460,254.3 434.8,120.8 499.8,119.5 	"/>
	<polygon class="st14" points="382.3,403.4 537.2,365.7 487.3,354.8 404.7,360.8 	"/>
</g>
<g id="Clean_Up_Polygons" class="st0">
	<g class="st15">
		<polygon class="st16" points="528,367.9 528.1,367.9 528.1,367.9 		"/>
		<polygon class="st16" points="555,244.9 555,244.9 555,244.9 		"/>
		<circle class="st17" cx="528.1" cy="367.9" r="0"/>
		<polygon class="st18" points="549.9,330 553.5,323.8 553.5,323.8 		"/>
		<path class="st18" d="M464.1,261.2c-0.5,0.1-1.1,0.2-1.6,0.3C463,261.4,463.5,261.3,464.1,261.2z"/>
		<path class="st18" d="M462.2,261.5c-0.6,0.1-1.3,0.1-1.9,0.1C460.9,261.6,461.5,261.6,462.2,261.5z"/>
		<path class="st18" d="M467.6,260c-0.6,0.3-1.1,0.5-1.7,0.7C466.5,260.5,467.1,260.3,467.6,260z"/>
		<path class="st18" d="M465.9,260.7c-0.6,0.2-1.1,0.3-1.7,0.5C464.8,261,465.3,260.9,465.9,260.7z"/>
		<circle class="st18" cx="553.5" cy="323.8" r="0"/>
		<path class="st19" d="M360.9,262.3c0.3-0.1,0.6-0.2,0.9-0.2C361.5,262.1,361.2,262.2,360.9,262.3z"/>
		<path class="st19" d="M352.3,267.6c-0.2,0.3-0.5,0.5-0.7,0.8l0,0C351.9,268.1,352.1,267.8,352.3,267.6z"/>
		<path class="st19" d="M358.6,263.1c0.2-0.1,0.5-0.2,0.7-0.3C359,262.9,358.8,263,358.6,263.1z"/>
		<path class="st19" d="M362.2,262c0.3-0.1,0.5-0.1,0.8-0.1C362.7,261.9,362.4,261.9,362.2,262z"/>
		<path class="st19" d="M364.5,261.6c0.4,0,0.8,0,1.2,0C365.3,261.6,364.9,261.6,364.5,261.6z"/>
		<path class="st19" d="M363.3,261.8c0.3,0,0.5-0.1,0.8-0.1C363.9,261.7,363.6,261.7,363.3,261.8z"/>
		<path class="st19" d="M359.6,262.7c0.3-0.1,0.7-0.2,1.1-0.3C360.3,262.4,360,262.5,359.6,262.7z"/>
		<path class="st19" d="M353.5,266.4c0.1-0.1,0.3-0.3,0.4-0.4C353.8,266.1,353.7,266.2,353.5,266.4z"/>
		<path class="st19" d="M354.4,265.6c0.2-0.1,0.3-0.3,0.5-0.4C354.7,265.4,354.5,265.5,354.4,265.6z"/>
		<path class="st19" d="M352.7,267.2c0.1-0.1,0.3-0.3,0.4-0.4C353,266.9,352.8,267,352.7,267.2z"/>
		<path class="st19" d="M356.5,264.1c0.2-0.1,0.4-0.2,0.6-0.4C356.9,263.9,356.7,264,356.5,264.1z"/>
		<path class="st19" d="M357.5,263.6c0.2-0.1,0.4-0.2,0.6-0.3C357.9,263.4,357.7,263.5,357.5,263.6z"/>
		<path class="st19" d="M355.3,265c0.3-0.2,0.6-0.4,0.9-0.6C355.8,264.5,355.5,264.7,355.3,265z"/>
		<circle class="st20" cx="351.7" cy="268.4" r="0"/>
		<path class="st20" d="M300.6,291.2c-0.2,0.7-0.4,1.4-0.6,2.1C300.2,292.6,300.4,291.9,300.6,291.2z"/>
		<path class="st20" d="M301.5,289.1c-0.2,0.3-0.3,0.7-0.4,1C301.2,289.8,301.3,289.5,301.5,289.1z"/>
		<path class="st20" d="M301,290.3c-0.1,0.3-0.2,0.6-0.3,0.9C300.8,290.9,300.9,290.6,301,290.3z"/>
		<path class="st20" d="M350.5,270.1c0.1-0.1,0.1-0.2,0.2-0.3C350.6,269.9,350.5,270,350.5,270.1z"/>
		<polygon class="st20" points="351.7,268.4 351.7,268.4 351.7,268.4 		"/>
		<circle class="st21" cx="555" cy="244.9" r="0"/>
		<path class="st21" d="M477,250c-0.2,0.6-0.5,1.2-0.8,1.8C476.5,251.1,476.7,250.6,477,250z"/>
		<path class="st21" d="M477.4,248.7c-0.1,0.3-0.2,0.5-0.2,0.8C477.2,249.2,477.3,249,477.4,248.7z"/>
		<path class="st21" d="M476.2,251.8c-0.2,0.3-0.4,0.7-0.5,1C475.8,252.4,476,252.1,476.2,251.8z"/>
		<path class="st21" d="M477.8,247.1c0,0.2-0.1,0.5-0.1,0.7C477.7,247.5,477.7,247.3,477.8,247.1z"/>
		<path class="st21" d="M476.2,235.8c-0.1-0.3-0.3-0.6-0.5-0.9l0,0C475.9,235.2,476,235.5,476.2,235.8z"/>
		<path class="st21" d="M478,245.4c0,0.2,0,0.3,0,0.5C478,245.7,478,245.5,478,245.4z"/>
		<path class="st21" d="M477.6,239.8c0,0.2,0.1,0.3,0.1,0.5C477.7,240.2,477.7,240,477.6,239.8z"/>
		<polygon class="st21" points="555,244.9 555,244.9 518.7,181.9 518.7,181.9 		"/>
		<path class="st21" d="M477.2,238.2c0.1,0.2,0.1,0.5,0.2,0.7C477.3,238.6,477.3,238.4,477.2,238.2z"/>
		<path class="st21" d="M478,241.7c0,0.1,0,0.3,0,0.4C478,242,478,241.9,478,241.7z"/>
		<path class="st21" d="M476.4,236.2c0.2,0.4,0.4,0.9,0.5,1.3C476.8,237,476.6,236.6,476.4,236.2z"/>
		<path class="st17" d="M301.3,304.3c0.2,0.4,0.4,0.9,0.6,1.3C301.7,305.2,301.5,304.8,301.3,304.3z"/>
		<path class="st17" d="M299.8,298.2c0,0.5,0.1,1,0.2,1.4C299.8,299.1,299.8,298.6,299.8,298.2z"/>
		<path class="st17" d="M299.9,299.6c0.1,0.5,0.2,0.9,0.3,1.4C300.1,300.5,300,300.1,299.9,299.6z"/>
		<polygon class="st17" points="272.3,383.2 283.1,401.9 283.1,401.9 		"/>
		<path class="st17" d="M300.1,293.3c-0.1,0.5-0.2,0.9-0.2,1.4C299.9,294.2,300,293.8,300.1,293.3z"/>
		<path class="st17" d="M300.7,302.7c0.2,0.4,0.3,0.9,0.5,1.3C301,303.6,300.8,303.1,300.7,302.7z"/>
		<path class="st17" d="M299.7,297.9c0-1,0-1.9,0.1-2.9C299.7,295.9,299.7,296.9,299.7,297.9z"/>
		<path class="st17" d="M300.3,301.3c0.1,0.5,0.2,0.9,0.4,1.4C300.5,302.2,300.4,301.8,300.3,301.3z"/>
		<polygon class="st22" points="228.4,258.8 214.5,283 228.4,258.8 		"/>
		<circle class="st23" cx="228.4" cy="258.8" r="0"/>
		<polygon class="st23" points="263.6,197.9 263.6,197.9 228.4,258.8 228.4,258.8 		"/>
		<circle class="st23" cx="263.6" cy="197.9" r="0"/>
		<polygon class="st21" points="305.1,126 263.6,197.9 263.6,197.9 		"/>
		<circle class="st24" cx="283.1" cy="401.9" r="0"/>
		<polygon class="st24" points="283.1,401.9 292.8,418.7 283.1,401.9 		"/>
		<polygon class="st25" points="327.1,440 327.1,440 327.1,440 330.4,441.8 330.4,441.8 		"/>
		<path class="st26" d="M472.1,257c-0.3,0.3-0.6,0.6-1,0.8C471.5,257.6,471.8,257.3,472.1,257z"/>
		<polygon class="st26" points="553.5,323.8 553.5,323.8 577.1,283 		"/>
		<path class="st26" d="M471.1,257.9c-1.1,0.8-2.2,1.5-3.5,2.1C468.9,259.4,470,258.7,471.1,257.9z"/>
		<path class="st26" d="M472.3,256.9c1.3-1.2,2.5-2.6,3.4-4.2C474.7,254.3,473.6,255.7,472.3,256.9z"/>
		<circle class="st19" cx="475.7" cy="234.9" r="0"/>
		<circle class="st19" cx="518.7" cy="181.9" r="0"/>
		<path class="st19" d="M461.9,226c0.1,0,0.3,0,0.4,0C462.2,226.1,462,226,461.9,226z"/>
		<polygon class="st19" points="518.7,181.9 486.4,126 518.7,181.9 		"/>
		<path class="st19" d="M473.6,231.9c-0.4-0.4-0.8-0.8-1.2-1.2C472.8,231.1,473.2,231.5,473.6,231.9z"/>
		<path class="st19" d="M475.7,234.9c-0.3-0.6-0.7-1.2-1.1-1.7C475,233.7,475.4,234.3,475.7,234.9L475.7,234.9z"/>
		<path class="st19" d="M465.4,226.7c0.2,0,0.3,0.1,0.5,0.1C465.7,226.8,465.5,226.7,465.4,226.7z"/>
		<path class="st19" d="M473.8,232.1c0.2,0.2,0.4,0.5,0.6,0.8C474.2,232.6,474,232.4,473.8,232.1z"/>
		<path class="st19" d="M471.3,229.8c0.2,0.2,0.4,0.3,0.6,0.5C471.8,230.2,471.5,230,471.3,229.8z"/>
		<path class="st19" d="M466.9,227.3c0.1,0.1,0.3,0.1,0.4,0.2C467.2,227.4,467.1,227.3,466.9,227.3z"/>
		<path class="st19" d="M463.8,226.3c0,0,0.1,0,0.1,0C463.8,226.3,463.8,226.3,463.8,226.3z"/>
		<path class="st19" d="M468.5,228c0.2,0.1,0.4,0.2,0.6,0.3C468.9,228.2,468.7,228.1,468.5,228z"/>
		<path class="st19" d="M469.8,228.7c0.3,0.2,0.6,0.4,0.8,0.6C470.4,229.1,470.1,228.9,469.8,228.7z"/>
		<polygon class="st27" points="528.1,367.9 528.1,367.9 529.4,365.6 		"/>
		<polygon class="st16" points="555,244.9 555,244.9 555,244.9 		"/>
		<polygon class="st16" points="528,368 528,368 528,367.9 528,368 		"/>
		<circle class="st16" cx="295.5" cy="423.3" r="0"/>
		<circle class="st16" cx="475.6" cy="252.8" r="0"/>
		<rect x="263.3" y="367.5" class="st16" width="0" height="0"/>
		<polygon class="st16" points="382.3,403.4 528,368 528,367.9 528.1,367.9 		"/>
		<polygon class="st16" points="540.7,246.3 493.4,251 555,244.9 555,244.9 555,244.9 		"/>
		<polygon class="st16" points="402.1,365.6 402,365.6 382.3,403.4 		"/>
		<polygon class="st16" points="456.2,261.6 442.8,287.4 420.6,330 420.7,330 456.2,261.6 		"/>
		<polygon class="st21" points="456.2,261.6 420.7,330 420.7,330 456.2,261.6 		"/>
		<polygon class="st27" points="402,365.6 402,365.6 382.3,403.4 		"/>
		<polygon class="st27" points="442.8,287.4 456.2,261.6 456.2,261.6 		"/>
		<polygon class="st27" points="475.6,252.8 493.4,251 540.7,246.3 475.6,252.8 		"/>
		<polygon class="st21" points="263.3,367.5 263.3,367.5 287.7,276.7 		"/>
		<polygon class="st17" points="349.3,126 349.3,126 387.7,194.3 		"/>
		<polygon class="st24" points="302.6,427 296.1,423.6 297.4,424.3 		"/>
		<polygon class="st25" points="296.1,423.6 295.5,423.3 295.5,423.3 297.4,424.3 		"/>
		<polygon class="st25" points="528,368 382.3,403.4 528,368 		"/>
		<polygon class="st17" points="528.1,367.9 382.3,403.4 528.1,367.9 		"/>
		<polygon class="st17" points="402.1,365.6 402.1,365.6 382.3,403.4 		"/>
		<path class="st18" d="M465.9,260.7C465.9,260.7,465.9,260.7,465.9,260.7C465.9,260.7,465.9,260.7,465.9,260.7z"/>
		<path class="st18" d="M464.2,261.2c0,0-0.1,0-0.1,0C464.1,261.2,464.2,261.2,464.2,261.2z"/>
		<path class="st18" d="M462.5,261.5c-0.1,0-0.2,0-0.3,0C462.3,261.5,462.4,261.5,462.5,261.5z"/>
		<circle class="st18" cx="467.6" cy="260" r="0"/>
		<path class="st18" d="M553.5,323.8L467.6,260l0,0c-0.6,0.3-1.1,0.5-1.7,0.7c0,0,0,0,0,0c-0.6,0.2-1.1,0.3-1.7,0.5c0,0-0.1,0-0.1,0
			c-0.5,0.1-1.1,0.2-1.6,0.3c-0.1,0-0.2,0-0.3,0c-0.6,0.1-1.3,0.1-1.9,0.1h-4L420.7,330h129.3L553.5,323.8z"/>
		<polygon class="st18" points="467.6,260 467.6,260 553.5,323.8 553.5,323.8 		"/>
		<path class="st19" d="M356.1,264.4c0.1-0.1,0.2-0.1,0.4-0.2C356.4,264.2,356.3,264.3,356.1,264.4z"/>
		<polygon class="st19" points="308.9,273.9 308.9,273.9 308.9,273.9 316.4,258.4 		"/>
		<path class="st19" d="M357.1,263.8c0.1-0.1,0.3-0.1,0.4-0.2C357.4,263.6,357.2,263.7,357.1,263.8z"/>
		<path class="st19" d="M352.3,267.6c0.1-0.1,0.2-0.3,0.4-0.4C352.6,267.3,352.5,267.4,352.3,267.6z"/>
		<path class="st19" d="M358.1,263.3c0.1-0.1,0.3-0.1,0.4-0.2C358.4,263.1,358.3,263.2,358.1,263.3z"/>
		<path class="st19" d="M353.1,266.8c0.1-0.1,0.3-0.3,0.4-0.4C353.4,266.5,353.3,266.6,353.1,266.8z"/>
		<path class="st19" d="M354,266c0.1-0.1,0.3-0.2,0.4-0.3C354.2,265.7,354.1,265.9,354,266z"/>
		<path class="st19" d="M354.9,265.2c0.1-0.1,0.2-0.2,0.4-0.3C355.1,265,355,265.1,354.9,265.2z"/>
		<path class="st19" d="M361.8,262c0.1,0,0.3-0.1,0.4-0.1C362,262,361.9,262,361.8,262z"/>
		<path class="st19" d="M364.1,261.7c0.1,0,0.2,0,0.4,0C364.4,261.6,364.2,261.7,364.1,261.7z"/>
		<path class="st19" d="M362.9,261.8c0.1,0,0.3,0,0.4-0.1C363.2,261.8,363.1,261.8,362.9,261.8z"/>
		<polygon class="st19" points="319.3,252.4 320.8,249.4 320.8,249.4 		"/>
		<path class="st19" d="M360.7,262.3c0.1,0,0.1,0,0.2-0.1C360.8,262.3,360.7,262.3,360.7,262.3z"/>
		<path class="st19" d="M359.2,262.8c0.1,0,0.2-0.1,0.4-0.1C359.5,262.7,359.4,262.8,359.2,262.8z"/>
		<polygon class="st19" points="371.8,225.9 425.8,225.9 387.7,194.3 349.3,225.9 		"/>
		<path class="st19" d="M365.7,261.6c-0.4,0-0.8,0-1.2,0c-0.1,0-0.2,0-0.4,0c-0.3,0-0.5,0.1-0.8,0.1c-0.1,0-0.3,0-0.4,0.1
			c-0.3,0-0.5,0.1-0.8,0.1c-0.1,0-0.3,0.1-0.4,0.1c-0.3,0.1-0.6,0.1-0.9,0.2c-0.1,0-0.1,0-0.2,0.1c-0.4,0.1-0.7,0.2-1.1,0.3
			c-0.1,0-0.2,0.1-0.4,0.1c-0.2,0.1-0.5,0.2-0.7,0.3c-0.1,0.1-0.3,0.1-0.4,0.2c-0.2,0.1-0.4,0.2-0.6,0.3c-0.1,0.1-0.3,0.1-0.4,0.2
			c-0.2,0.1-0.4,0.2-0.6,0.4c-0.1,0.1-0.2,0.1-0.4,0.2c-0.3,0.2-0.6,0.4-0.9,0.6c-0.1,0.1-0.3,0.2-0.4,0.3c-0.2,0.1-0.3,0.3-0.5,0.4
			c-0.1,0.1-0.3,0.2-0.4,0.3c-0.1,0.1-0.3,0.3-0.4,0.4c-0.1,0.1-0.3,0.2-0.4,0.4c-0.1,0.1-0.3,0.3-0.4,0.4c-0.1,0.1-0.2,0.3-0.4,0.4
			c-0.2,0.3-0.5,0.5-0.7,0.8l47-6.1l5.3-0.7H365.7z"/>
		<polygon class="st19" points="316.4,258.4 319.3,252.4 320.8,249.4 287.7,276.7 308.9,273.9 		"/>
		<polygon class="st19" points="308.9,273.9 287.7,276.7 308.9,273.9 		"/>
		<polygon class="st19" points="398.6,262.3 403.9,261.6 403.9,261.6 		"/>
		<path class="st20" d="M301,290.2c0,0,0,0.1,0,0.1C301,290.2,301,290.2,301,290.2z"/>
		<polygon class="st20" points="300.1,293.3 300.1,293.3 300.1,293.3 		"/>
		<path class="st20" d="M349.6,271.6c0.3-0.5,0.5-1,0.9-1.5C350.2,270.6,349.9,271.1,349.6,271.6z"/>
		<path class="st20" d="M350.7,269.8c0.3-0.5,0.6-1,1-1.4C351.3,268.8,351,269.3,350.7,269.8z"/>
		<polygon class="st20" points="301.5,289.1 308.9,273.9 308.9,273.9 		"/>
		<path class="st20" d="M300.7,291.2C300.7,291.2,300.7,291.2,300.7,291.2C300.7,291.2,300.7,291.2,300.7,291.2z"/>
		<polygon class="st20" points="420.6,330 420.6,330 442.8,287.4 		"/>
		<polygon class="st20" points="351.7,268.4 398.6,262.3 351.7,268.4 		"/>
		<path class="st20" d="M287.7,276.7l12.4,16.6c0,0,0,0,0,0c0.1-0.7,0.3-1.4,0.6-2.1c0,0,0,0,0,0c0.1-0.3,0.2-0.6,0.3-0.9
			c0,0,0-0.1,0-0.1c0.1-0.3,0.3-0.7,0.4-1l7.4-15.2L287.7,276.7z"/>
		<polygon class="st20" points="354.1,365.6 382.3,403.4 402,365.6 376.3,365.6 		"/>
		<path class="st20" d="M403.9,261.6l-5.3,0.7l-47,6.1l0,0c-0.4,0.5-0.7,0.9-1,1.4c-0.1,0.1-0.1,0.2-0.2,0.3c-0.3,0.5-0.6,1-0.9,1.5
			l-7.9,16.3c-2.5,5.2-2.4,11.4,0.5,16.5l9.2,16.4c3.2,5.6,9.1,9.1,15.6,9.1h53.7l22.2-42.5l13.5-25.8H403.9z"/>
		<polygon class="st20" points="354.1,365.6 354.1,365.6 382.3,403.4 		"/>
		<path class="st21" d="M477.8,240.3c0.1,0.5,0.2,0.9,0.2,1.4C477.9,241.3,477.8,240.8,477.8,240.3z"/>
		<path class="st21" d="M476.2,235.8c0.1,0.1,0.1,0.3,0.2,0.4C476.3,236,476.3,235.9,476.2,235.8z"/>
		<path class="st21" d="M477.4,238.8c0.1,0.3,0.2,0.7,0.3,1C477.6,239.5,477.5,239.2,477.4,238.8z"/>
		<polygon class="st21" points="475.6,252.8 475.6,252.8 475.6,252.8 		"/>
		<path class="st21" d="M476.9,237.5c0.1,0.2,0.2,0.5,0.3,0.7C477.1,237.9,477,237.7,476.9,237.5z"/>
		<path class="st21" d="M478.1,243.8c0,0.5,0,1.1-0.1,1.6C478.1,244.8,478.1,244.3,478.1,243.8z"/>
		<path class="st21" d="M478,242.2c0,0.5,0.1,1.1,0.1,1.6C478.1,243.2,478.1,242.7,478,242.2z"/>
		<path class="st21" d="M478,245.8c0,0.4-0.1,0.8-0.2,1.2C477.9,246.7,477.9,246.3,478,245.8z"/>
		<path class="st21" d="M476.2,251.7C476.2,251.7,476.2,251.8,476.2,251.7C476.2,251.8,476.2,251.7,476.2,251.7z"/>
		<path class="st21" d="M477.1,249.5c-0.1,0.2-0.1,0.3-0.2,0.5C477,249.8,477.1,249.6,477.1,249.5z"/>
		<path class="st21" d="M477.6,247.8c-0.1,0.3-0.2,0.6-0.2,1C477.5,248.4,477.6,248.1,477.6,247.8z"/>
		<polygon class="st21" points="555,244.9 555,244.9 540.7,246.3 		"/>
		<path class="st21" d="M475.7,234.9c0.2,0.3,0.3,0.6,0.5,0.9c0.1,0.1,0.1,0.3,0.2,0.4c0.2,0.4,0.4,0.9,0.5,1.3
			c0.1,0.2,0.2,0.5,0.3,0.7c0.1,0.2,0.1,0.5,0.2,0.7c0.1,0.3,0.2,0.7,0.3,1c0,0.2,0.1,0.3,0.1,0.5c0.1,0.5,0.2,0.9,0.2,1.4
			c0,0.1,0,0.3,0,0.4c0,0.5,0.1,1.1,0.1,1.6v0c0,0.5,0,1.1-0.1,1.6c0,0.2,0,0.3,0,0.5c0,0.4-0.1,0.8-0.2,1.2c0,0.2-0.1,0.4-0.1,0.7
			c-0.1,0.3-0.2,0.6-0.2,1c-0.1,0.3-0.2,0.5-0.2,0.8c-0.1,0.2-0.1,0.3-0.2,0.5c-0.2,0.6-0.5,1.2-0.8,1.8c0,0,0,0,0,0.1
			c-0.2,0.3-0.4,0.7-0.5,1l0,0l65.1-6.5l14.3-1.4l-36.3-62.9L475.7,234.9z"/>
		<polygon class="st17" points="263.3,367.5 263.3,367.5 263.3,367.5 272.3,383.2 		"/>
		<path class="st17" d="M299.9,299.6C299.9,299.6,299.9,299.6,299.9,299.6C299.9,299.6,299.9,299.6,299.9,299.6z"/>
		<path class="st17" d="M299.8,294.7c0,0.1,0,0.2,0,0.3C299.8,294.9,299.8,294.8,299.8,294.7z"/>
		<path class="st17" d="M300.2,301c0,0.1,0.1,0.2,0.1,0.3C300.2,301.2,300.2,301.1,300.2,301z"/>
		<path class="st17" d="M301.2,304c0,0.1,0.1,0.2,0.1,0.3C301.3,304.2,301.2,304.1,301.2,304z"/>
		<circle class="st17" cx="300.1" cy="293.3" r="0"/>
		<path class="st17" d="M299.7,297.9c0,0.1,0,0.2,0,0.3C299.7,298.1,299.7,298,299.7,297.9z"/>
		<path class="st17" d="M300.7,302.7C300.7,302.7,300.7,302.7,300.7,302.7C300.7,302.7,300.7,302.7,300.7,302.7z"/>
		<polygon class="st17" points="300.1,293.3 287.7,276.7 300.1,293.3 		"/>
		<path class="st17" d="M330.4,356.5l-2.8-5.1l-8.9-15.9L302,305.6c-0.2-0.4-0.4-0.9-0.6-1.3c0-0.1-0.1-0.2-0.1-0.3
			c-0.2-0.4-0.4-0.9-0.5-1.3c0,0,0,0,0,0c-0.2-0.5-0.3-0.9-0.4-1.4c0-0.1-0.1-0.2-0.1-0.3c-0.1-0.5-0.2-0.9-0.3-1.4c0,0,0,0,0,0
			c-0.1-0.5-0.1-1-0.2-1.4c0-0.1,0-0.2,0-0.3c0-1,0-1.9,0.1-2.9c0-0.1,0-0.2,0-0.3c0.1-0.5,0.1-1,0.2-1.4c0,0,0,0,0,0l-12.4-16.6
			l-24.4,90.8l9.1,15.7l10.8,18.7l99.2,1.5l-28.2-37.8H346C339.5,365.6,333.6,362.1,330.4,356.5z"/>
		<polygon class="st17" points="263.3,367.5 263.3,367.5 287.7,276.7 		"/>
		<polygon class="st22" points="214.5,283 263.3,367.5 263.3,367.5 		"/>
		<polygon class="st22" points="228.4,258.8 214.5,283 263.3,367.5 287.7,276.7 		"/>
		<polygon class="st23" points="320.8,249.4 327.3,236 320.8,249.4 320.8,249.4 		"/>
		<polygon class="st23" points="387.7,194.3 349.3,225.9 349.3,225.9 		"/>
		<polygon class="st23" points="320.8,249.4 287.7,276.7 320.8,249.4 		"/>
		<path class="st23" d="M287.7,276.7l33.1-27.3l6.5-13.4c3-6.1,9.2-10,16-10h5.9l38.4-31.6L349.3,126h-19.9L287.7,276.7z"/>
		<polygon class="st23" points="228.4,258.8 287.7,276.7 228.4,258.8 		"/>
		<polygon class="st23" points="228.4,258.8 287.7,276.7 263.6,197.9 		"/>
		<polygon class="st23" points="263.6,197.9 287.7,276.7 263.6,197.9 		"/>
		<polygon class="st21" points="329.4,126 329.4,126 287.7,276.7 		"/>
		<polygon class="st21" points="287.7,276.7 329.4,126 305.1,126 263.6,197.9 		"/>
		<polygon class="st21" points="329.4,126 329.4,126 287.7,276.7 		"/>
		<polygon class="st24" points="295.5,423.3 292.8,418.7 295.5,423.3 295.5,423.3 		"/>
		<polygon class="st24" points="283.1,401.9 382.3,403.4 283.1,401.9 		"/>
		<polygon class="st24" points="292.8,418.7 295.5,423.3 296.1,423.6 302.6,427 321.1,436.8 327.1,440 399.8,440 382.3,403.4 
			283.1,401.9 		"/>
		<polygon class="st24" points="295.5,423.3 295.5,423.3 296.1,423.6 		"/>
		<polygon class="st24" points="327.1,440 327.1,440 321.1,436.8 		"/>
		<polygon class="st24" points="399.8,440 382.3,403.4 399.8,440 		"/>
		<polygon class="st25" points="295.5,423.3 295.5,423.3 305.1,440 		"/>
		<polygon class="st25" points="302.6,427 313.6,432.9 302.6,427 297.4,424.3 		"/>
		<polygon class="st25" points="302.6,427 297.4,424.3 295.5,423.3 305.1,440 327.1,440 322,437.3 		"/>
		<polygon class="st25" points="322,437.3 313.6,432.9 302.6,427 		"/>
		<polygon class="st25" points="321.1,436.8 302.6,427 313.6,432.9 		"/>
		<polygon class="st25" points="327.1,440 327.1,440 322,437.3 		"/>
		<polygon class="st25" points="313.6,432.9 322,437.3 327.1,440 327.1,440 321.1,436.8 		"/>
		<polygon class="st25" points="486.4,440 528,368 528,368 		"/>
		<polygon class="st25" points="486.4,440 528,368 382.3,403.4 399.8,440 		"/>
		<polygon class="st25" points="399.8,440 382.3,403.4 399.8,440 		"/>
		<polygon class="st25" points="399.8,440 382.3,403.4 399.8,440 		"/>
		<path class="st26" d="M471.2,257.9C471.1,257.9,471.1,257.9,471.2,257.9C471.1,257.9,471.1,257.9,471.2,257.9z"/>
		<polygon class="st26" points="467.6,260 467.6,260 467.6,260 		"/>
		<path class="st26" d="M472.3,256.9c0,0-0.1,0.1-0.1,0.1C472.2,257,472.2,257,472.3,256.9z"/>
		<ellipse transform="matrix(0.5547 -0.8321 0.8321 0.5547 1.4782 508.3135)" class="st26" cx="475.6" cy="252.8" rx="0" ry="0"/>
		<polygon class="st26" points="555,244.9 577.1,283 555,244.9 555,244.9 		"/>
		<polygon class="st26" points="555,244.9 555,244.9 493.4,251 475.6,252.8 		"/>
		<polygon class="st26" points="475.6,252.8 493.4,251 475.6,252.8 		"/>
		<path class="st26" d="M475.6,252.8c-0.9,1.6-2.1,3-3.4,4.2c0,0-0.1,0.1-0.1,0.1c-0.3,0.3-0.6,0.6-1,0.8c0,0,0,0-0.1,0.1
			c-1.1,0.8-2.2,1.5-3.5,2.1c0,0,0,0,0,0l85.9,63.8l23.5-40.8l-22-38.1L475.6,252.8L475.6,252.8z"/>
		<polygon class="st28" points="422.1,126 349.3,126 387.7,194.3 		"/>
		<polygon class="st28" points="422.1,126 387.7,194.3 422.1,126 		"/>
		<polygon class="st29" points="425.8,225.9 387.7,194.3 425.8,225.9 		"/>
		<polygon class="st29" points="454.6,225.9 438.3,139.1 435.8,126 422.1,126 387.7,194.3 425.8,225.9 		"/>
		<polygon class="st29" points="438.3,139.1 454.6,225.9 454.6,225.9 		"/>
		<polygon class="st29" points="422.1,126 387.7,194.3 422.1,126 		"/>
		<path class="st19" d="M467.4,227.4c0.4,0.2,0.8,0.4,1.2,0.6C468.1,227.8,467.7,227.6,467.4,227.4z"/>
		<path class="st19" d="M463.9,226.3c0.5,0.1,1,0.2,1.5,0.4C464.9,226.6,464.4,226.4,463.9,226.3z"/>
		<path class="st19" d="M472,230.3c0.1,0.1,0.3,0.3,0.4,0.4C472.2,230.6,472.1,230.5,472,230.3z"/>
		<path class="st19" d="M460.3,225.9c0.5,0,1.1,0,1.6,0.1C461.4,226,460.8,225.9,460.3,225.9z"/>
		<path class="st19" d="M462.3,226.1c0.5,0.1,1,0.1,1.5,0.2C463.3,226.2,462.8,226.1,462.3,226.1z"/>
		<path class="st19" d="M474.4,232.9c0.1,0.1,0.1,0.2,0.2,0.3C474.5,233.1,474.4,233,474.4,232.9z"/>
		<path class="st19" d="M469.1,228.3c0.3,0.1,0.5,0.3,0.7,0.5C469.6,228.6,469.3,228.4,469.1,228.3z"/>
		<path class="st19" d="M470.7,229.3c0.2,0.2,0.4,0.3,0.7,0.5C471.1,229.6,470.9,229.5,470.7,229.3z"/>
		<path class="st19" d="M465.8,226.8c0.4,0.1,0.8,0.3,1.1,0.4C466.6,227.1,466.2,227,465.8,226.8z"/>
		<path class="st19" d="M473.6,231.9c0.1,0.1,0.1,0.1,0.2,0.2C473.7,232.1,473.6,232,473.6,231.9z"/>
		<polygon class="st19" points="518.7,181.9 518.7,181.9 475.7,234.9 475.7,234.9 		"/>
		<polygon class="st19" points="435.8,126 435.8,126 438.3,139.1 		"/>
		<path class="st19" d="M454.6,225.9h5.6c0.5,0,1.1,0,1.6,0.1c0.1,0,0.3,0,0.4,0c0.5,0.1,1,0.1,1.5,0.2c0,0,0.1,0,0.1,0
			c0.5,0.1,1,0.2,1.5,0.4c0.2,0,0.3,0.1,0.5,0.1c0.4,0.1,0.8,0.3,1.1,0.4c0.1,0.1,0.3,0.1,0.4,0.2c0.4,0.2,0.8,0.4,1.2,0.6
			c0.2,0.1,0.4,0.2,0.6,0.3c0.3,0.1,0.5,0.3,0.7,0.5c0.3,0.2,0.6,0.4,0.8,0.6c0.2,0.2,0.4,0.3,0.7,0.5c0.2,0.2,0.4,0.3,0.6,0.5
			c0.1,0.1,0.3,0.3,0.4,0.4c0.4,0.4,0.8,0.8,1.2,1.2c0.1,0.1,0.1,0.1,0.2,0.2c0.2,0.2,0.4,0.5,0.6,0.8c0.1,0.1,0.1,0.2,0.2,0.3
			c0.4,0.6,0.8,1.1,1.1,1.7l43-53L486.4,126h-50.6l2.5,13.1L454.6,225.9z"/>
		<polygon class="st27" points="528.1,367.9 529.4,365.6 402.1,365.6 382.3,403.4 		"/>
	</g>
</g>
<g id="Raw_Logo" class="st0">
	<path class="st30" d="M376.3,365.6H346c-6.5,0-12.4-3.5-15.6-9.1l-2.8-5.1l-8.9-15.9L302,305.6c-2.8-5.1-3-11.2-0.5-16.5l14.9-30.7
		l2.9-6l8-16.4c3-6.1,9.2-10,16-10h28.5h88.5c9.8,0,17.8,8,17.8,17.8v0c0,9.8-8,17.8-17.8,17.8h-94.6c-6.8,0-13.1,3.9-16,10
		l-7.9,16.3c-2.5,5.2-2.4,11.4,0.5,16.5l9.2,16.4c3.2,5.6,9.1,9.1,15.6,9.1h183.1l27.1-47l-90.6-157H305.1l-90.6,157l90.6,157h181.3
		l42.9-74.4H376.3z"/>
</g>
<g id="Final_Logo">
	<g>
		<polygon class="st16" points="209.2,281.8 209.2,281.8 209.2,281.8 		"/>
		<polygon class="st16" points="190.1,221.8 190.1,221.8 190.1,221.8 		"/>
		<circle class="st17" cx="209.2" cy="281.8" r="0"/>
		<polygon class="st18" points="209.2,259.9 209.2,256.3 209.2,256.3 		"/>
		<path class="st18" d="M154.8,251.6c-0.2,0.2-0.4,0.4-0.6,0.5C154.4,252,154.6,251.8,154.8,251.6z"/>
		<path class="st18" d="M154,252.2c-0.3,0.2-0.5,0.4-0.8,0.5C153.5,252.6,153.8,252.4,154,252.2z"/>
		<path class="st18" d="M156,250.2c-0.2,0.3-0.4,0.5-0.6,0.7C155.7,250.7,155.9,250.4,156,250.2z"/>
		<path class="st18" d="M155.5,250.9c-0.2,0.2-0.4,0.4-0.6,0.6C155.1,251.3,155.3,251.1,155.5,250.9z"/>
		<circle class="st18" cx="209.2" cy="256.3" r="0"/>
		<path class="st19" d="M110.4,277.9c0.1-0.1,0.2-0.2,0.3-0.3C110.6,277.6,110.5,277.7,110.4,277.9z"/>
		<path class="st19" d="M108,282.3c0,0.2-0.1,0.3-0.1,0.5l0,0C107.9,282.6,108,282.5,108,282.3z"/>
		<path class="st19" d="M109.6,278.8c0.1-0.1,0.1-0.2,0.2-0.3C109.7,278.6,109.6,278.7,109.6,278.8z"/>
		<path class="st19" d="M110.9,277.4c0.1-0.1,0.2-0.2,0.3-0.2C111,277.2,110.9,277.3,110.9,277.4z"/>
		<path class="st19" d="M111.8,276.7c0.2-0.1,0.3-0.2,0.5-0.3C112.1,276.5,111.9,276.6,111.8,276.7z"/>
		<path class="st19" d="M111.3,277c0.1-0.1,0.2-0.2,0.3-0.2C111.5,276.9,111.4,276.9,111.3,277z"/>
		<path class="st19" d="M109.9,278.4c0.1-0.1,0.2-0.3,0.4-0.4C110.2,278.1,110,278.2,109.9,278.4z"/>
		<path class="st19" d="M108.2,281.5c0-0.1,0.1-0.2,0.1-0.3C108.3,281.3,108.2,281.4,108.2,281.5z"/>
		<path class="st19" d="M108.4,280.9c0-0.1,0.1-0.2,0.1-0.3C108.5,280.7,108.4,280.8,108.4,280.9z"/>
		<path class="st19" d="M108.1,282c0-0.1,0-0.2,0.1-0.3C108.1,281.8,108.1,281.9,108.1,282z"/>
		<path class="st19" d="M108.9,279.8c0.1-0.1,0.1-0.2,0.2-0.3C109.1,279.6,109,279.7,108.9,279.8z"/>
		<path class="st19" d="M109.2,279.3c0.1-0.1,0.1-0.2,0.2-0.3C109.4,279.1,109.3,279.2,109.2,279.3z"/>
		<path class="st19" d="M108.6,280.4c0.1-0.2,0.1-0.3,0.2-0.5C108.8,280.1,108.7,280.3,108.6,280.4z"/>
		<circle class="st20" cx="107.9" cy="282.8" r="0"/>
		<path class="st20" d="M91.5,305.5c0.1,0.4,0.2,0.7,0.3,1C91.7,306.2,91.6,305.8,91.5,305.5z"/>
		<path class="st20" d="M91.4,304.4c0,0.2,0,0.4,0.1,0.5C91.4,304.7,91.4,304.5,91.4,304.4z"/>
		<path class="st20" d="M91.4,305c0,0.2,0,0.3,0.1,0.5C91.5,305.3,91.5,305.1,91.4,305z"/>
		<path class="st20" d="M107.8,283.9c0-0.1,0-0.1,0-0.2C107.8,283.7,107.8,283.8,107.8,283.9z"/>
		<polygon class="st20" points="107.9,282.8 107.9,282.8 107.9,282.8 		"/>
		<circle class="st21" cx="190.1" cy="221.8" r="0"/>
		<path class="st21" d="M157.6,243.5c0.1,0.3,0.1,0.6,0.1,1C157.7,244.1,157.6,243.8,157.6,243.5z"/>
		<path class="st21" d="M157.4,242.9c0,0.1,0.1,0.3,0.1,0.4C157.5,243.1,157.5,243,157.4,242.9z"/>
		<path class="st21" d="M157.7,244.5c0,0.2,0,0.4,0,0.6C157.7,244.9,157.7,244.7,157.7,244.5z"/>
		<path class="st21" d="M157.2,242.1c0,0.1,0.1,0.2,0.1,0.3C157.3,242.3,157.2,242.2,157.2,242.1z"/>
		<path class="st21" d="M153.7,237.6c-0.1-0.1-0.3-0.2-0.4-0.3l0,0C153.4,237.4,153.6,237.5,153.7,237.6z"/>
		<path class="st21" d="M156.9,241.3c0,0.1,0.1,0.1,0.1,0.2C156.9,241.4,156.9,241.3,156.9,241.3z"/>
		<path class="st21" d="M155.3,239c0.1,0.1,0.1,0.1,0.2,0.2C155.4,239.1,155.4,239,155.3,239z"/>
		<polygon class="st21" points="190.1,221.8 190.1,221.8 158.6,203.6 158.6,203.6 		"/>
		<path class="st21" d="M154.7,238.3c0.1,0.1,0.2,0.2,0.3,0.2C154.9,238.5,154.8,238.4,154.7,238.3z"/>
		<path class="st21" d="M155.9,239.7c0,0.1,0.1,0.1,0.1,0.2C156,239.8,156,239.8,155.9,239.7z"/>
		<path class="st21" d="M153.9,237.7c0.2,0.1,0.4,0.3,0.6,0.4C154.2,238,154.1,237.8,153.9,237.7z"/>
		<path class="st17" d="M95.1,311c0.2,0.1,0.4,0.3,0.6,0.4C95.5,311.2,95.3,311.1,95.1,311z"/>
		<path class="st17" d="M92.9,308.7c0.1,0.2,0.3,0.4,0.4,0.6C93.2,309.1,93,308.9,92.9,308.7z"/>
		<path class="st17" d="M93.3,309.3c0.1,0.2,0.3,0.4,0.5,0.5C93.6,309.6,93.5,309.5,93.3,309.3z"/>
		<polygon class="st17" points="102.3,352.4 111.6,357.7 111.6,357.7 		"/>
		<path class="st17" d="M91.8,306.5c0.1,0.2,0.2,0.5,0.3,0.7C92,306.9,91.9,306.7,91.8,306.5z"/>
		<path class="st17" d="M94.4,310.4c0.2,0.2,0.4,0.3,0.6,0.4C94.8,310.7,94.6,310.6,94.4,310.4z"/>
		<path class="st17" d="M92.8,308.6c-0.3-0.4-0.5-0.8-0.7-1.3C92.3,307.7,92.5,308.2,92.8,308.6z"/>
		<path class="st17" d="M93.9,309.9c0.2,0.2,0.3,0.3,0.5,0.5C94.2,310.3,94.1,310.1,93.9,309.9z"/>
		<polygon class="st22" points="52.2,309.5 52.2,323.4 52.2,309.5 		"/>
		<circle class="st23" cx="52.2" cy="309.5" r="0"/>
		<rect x="52.2" y="274.3" class="st23" width="0" height="35.2"/>
		<circle class="st23" cx="52.2" cy="274.3" r="0"/>
		<polygon class="st21" points="52.2,232.8 52.2,274.3 52.2,274.3 		"/>
		<circle class="st24" cx="111.6" cy="357.7" r="0"/>
		<polygon class="st24" points="111.6,357.7 120,362.6 111.6,357.7 		"/>
		<polygon class="st25" points="140.2,363.3 140.2,363.3 140.2,363.3 142.1,363.2 142.1,363.2 		"/>
		<path class="st26" d="M157.2,247.8c-0.1,0.2-0.1,0.4-0.2,0.6C157.1,248.2,157.2,248,157.2,247.8z"/>
		<polygon class="st26" points="209.2,256.3 209.2,256.3 209.2,232.8 		"/>
		<path class="st26" d="M157,248.4c-0.3,0.6-0.6,1.2-1,1.8C156.4,249.6,156.8,249,157,248.4z"/>
		<path class="st26" d="M157.3,247.7c0.3-0.9,0.4-1.7,0.4-2.6C157.7,246,157.5,246.9,157.3,247.7z"/>
		<circle class="st19" cx="153.3" cy="237.3" r="0"/>
		<circle class="st19" cx="158.6" cy="203.6" r="0"/>
		<path class="st19" d="M145.1,236.9c0.1,0,0.1-0.1,0.2-0.1C145.2,236.9,145.1,236.9,145.1,236.9z"/>
		<polygon class="st19" points="158.6,203.6 130.7,187.5 158.6,203.6 		"/>
		<path class="st19" d="M151.6,236.6c-0.3-0.1-0.5-0.2-0.8-0.2C151,236.4,151.3,236.5,151.6,236.6z"/>
		<path class="st19" d="M153.3,237.3c-0.3-0.2-0.6-0.3-0.9-0.5C152.7,237,153,237.1,153.3,237.3L153.3,237.3z"/>
		<path class="st19" d="M146.7,236.3c0.1,0,0.2,0,0.2-0.1C146.9,236.3,146.8,236.3,146.7,236.3z"/>
		<path class="st19" d="M151.7,236.6c0.2,0.1,0.3,0.1,0.5,0.2C152,236.7,151.9,236.7,151.7,236.6z"/>
		<path class="st19" d="M150.1,236.2c0.1,0,0.3,0,0.4,0.1C150.4,236.2,150.2,236.2,150.1,236.2z"/>
		<path class="st19" d="M147.5,236.2c0.1,0,0.1,0,0.2,0C147.7,236.2,147.6,236.2,147.5,236.2z"/>
		<path class="st19" d="M145.9,236.6C145.9,236.6,146,236.6,145.9,236.6C146,236.6,145.9,236.6,145.9,236.6z"/>
		<path class="st19" d="M148.4,236.1c0.1,0,0.2,0,0.3,0C148.6,236.1,148.5,236.1,148.4,236.1z"/>
		<path class="st19" d="M149.2,236.1c0.2,0,0.3,0,0.5,0C149.5,236.1,149.3,236.1,149.2,236.1z"/>
		<polygon class="st27" points="209.2,281.8 209.2,281.8 209.2,280.5 		"/>
		<polygon class="st16" points="190.1,221.8 190.1,221.8 190.1,221.8 		"/>
		<polygon class="st16" points="209.2,281.9 209.2,281.9 209.2,281.8 209.2,281.9 		"/>
		<circle class="st16" cx="122.3" cy="363.9" r="0"/>
		<circle class="st16" cx="157.7" cy="245.1" r="0"/>
		<ellipse transform="matrix(0.866 -0.5 0.5 0.866 -161.2663 93.8083)" class="st16" cx="94.4" cy="347.8" rx="0" ry="0"/>
		<polygon class="st16" points="154.9,333.6 209.2,281.9 209.2,281.8 209.2,281.8 		"/>
		<polygon class="st16" points="184.3,226 164.9,239.9 190.1,221.8 190.1,221.8 190.1,221.8 		"/>
		<polygon class="st16" points="154.1,312.3 154,312.3 154.9,333.6 		"/>
		<polygon class="st16" points="151.5,253.7 152.1,268.3 153.2,292.2 153.2,292.2 151.5,253.7 		"/>
		<polygon class="st21" points="151.5,253.7 153.2,292.2 153.2,292.2 151.5,253.7 		"/>
		<polygon class="st27" points="154,312.3 154,312.3 154.9,333.6 		"/>
		<polygon class="st27" points="152.1,268.3 151.5,253.7 151.5,253.7 		"/>
		<polygon class="st27" points="157.7,245.1 164.9,239.9 184.3,226 157.7,245.1 		"/>
		<polygon class="st21" points="94.4,347.8 94.4,347.8 82.3,302.4 		"/>
		<polygon class="st17" points="71.3,221.8 71.3,221.8 105,241.8 		"/>
		<polygon class="st24" points="126.3,363.8 122.7,363.9 123.4,363.9 		"/>
		<polygon class="st25" points="122.7,363.9 122.3,363.9 122.3,363.9 123.4,363.9 		"/>
		<polygon class="st25" points="209.2,281.9 154.9,333.6 209.2,281.9 		"/>
		<polygon class="st17" points="209.2,281.8 154.9,333.6 209.2,281.8 		"/>
		<polygon class="st17" points="154.1,312.3 154.1,312.3 154.9,333.6 		"/>
		<path class="st18" d="M155.5,250.9C155.5,250.9,155.5,250.9,155.5,250.9C155.5,250.9,155.5,250.9,155.5,250.9z"/>
		<path class="st18" d="M154.8,251.6C154.8,251.6,154.8,251.6,154.8,251.6C154.8,251.6,154.8,251.6,154.8,251.6z"/>
		<path class="st18" d="M154.2,252.1c0,0-0.1,0.1-0.1,0.1C154.1,252.2,154.1,252.1,154.2,252.1z"/>
		<circle class="st18" cx="156" cy="250.2" r="0"/>
		<path class="st18" d="M209.2,256.3l-53.1-6.1l0,0c-0.2,0.3-0.4,0.5-0.6,0.7c0,0,0,0,0,0c-0.2,0.2-0.4,0.4-0.6,0.6c0,0,0,0,0,0
			c-0.2,0.2-0.4,0.4-0.6,0.5c0,0-0.1,0.1-0.1,0.1c-0.3,0.2-0.5,0.4-0.8,0.5l-1.8,1l1.7,38.5l56-32.3V256.3z"/>
		<polygon class="st18" points="156,250.2 156,250.2 209.2,256.3 209.2,256.3 		"/>
		<path class="st19" d="M108.8,280c0-0.1,0.1-0.1,0.1-0.2C108.9,279.8,108.9,279.9,108.8,280z"/>
		<polygon class="st19" points="90.8,295.9 90.8,295.9 90.8,295.9 90.2,287.3 		"/>
		<path class="st19" d="M109.1,279.5c0-0.1,0.1-0.1,0.1-0.2C109.2,279.3,109.2,279.4,109.1,279.5z"/>
		<path class="st19" d="M108,282.3c0-0.1,0-0.2,0.1-0.3C108,282.1,108,282.2,108,282.3z"/>
		<path class="st19" d="M109.4,279c0-0.1,0.1-0.1,0.1-0.2C109.5,278.9,109.5,278.9,109.4,279z"/>
		<path class="st19" d="M108.1,281.7c0-0.1,0-0.2,0.1-0.3C108.2,281.6,108.2,281.7,108.1,281.7z"/>
		<path class="st19" d="M108.3,281.2c0-0.1,0.1-0.2,0.1-0.3C108.4,281,108.3,281.1,108.3,281.2z"/>
		<path class="st19" d="M108.5,280.7c0-0.1,0.1-0.1,0.1-0.2C108.6,280.5,108.6,280.6,108.5,280.7z"/>
		<path class="st19" d="M110.7,277.5c0,0,0.1-0.1,0.1-0.1C110.8,277.5,110.8,277.5,110.7,277.5z"/>
		<path class="st19" d="M111.6,276.8c0.1,0,0.1-0.1,0.2-0.1C111.7,276.7,111.7,276.8,111.6,276.8z"/>
		<path class="st19" d="M111.1,277.2c0.1,0,0.1-0.1,0.2-0.1C111.3,277.1,111.2,277.1,111.1,277.2z"/>
		<polygon class="st19" points="89.9,284 89.8,282.3 89.8,282.3 		"/>
		<path class="st19" d="M110.3,277.9C110.3,277.9,110.3,277.9,110.3,277.9C110.3,277.9,110.3,277.9,110.3,277.9z"/>
		<path class="st19" d="M109.8,278.5c0-0.1,0.1-0.1,0.1-0.2C109.9,278.4,109.8,278.5,109.8,278.5z"/>
		<polygon class="st19" points="106,259.4 129.4,245.9 105,241.8 96.3,265 		"/>
		<path class="st19" d="M112.3,276.4c-0.2,0.1-0.3,0.2-0.5,0.3c-0.1,0-0.1,0.1-0.2,0.1c-0.1,0.1-0.2,0.2-0.3,0.2
			c-0.1,0-0.1,0.1-0.2,0.1c-0.1,0.1-0.2,0.2-0.3,0.2c0,0-0.1,0.1-0.1,0.1c-0.1,0.1-0.2,0.2-0.3,0.3c0,0-0.1,0.1-0.1,0.1
			c-0.1,0.1-0.3,0.3-0.4,0.4c0,0.1-0.1,0.1-0.1,0.2c-0.1,0.1-0.2,0.2-0.2,0.3c0,0.1-0.1,0.1-0.1,0.2c-0.1,0.1-0.1,0.2-0.2,0.3
			c0,0.1-0.1,0.1-0.1,0.2c-0.1,0.1-0.1,0.2-0.2,0.3c0,0.1-0.1,0.1-0.1,0.2c-0.1,0.2-0.2,0.3-0.2,0.5c0,0.1-0.1,0.1-0.1,0.2
			c0,0.1-0.1,0.2-0.1,0.3c0,0.1-0.1,0.2-0.1,0.3c0,0.1-0.1,0.2-0.1,0.3c0,0.1-0.1,0.2-0.1,0.3c0,0.1-0.1,0.2-0.1,0.3
			c0,0.1,0,0.2-0.1,0.3c0,0.2-0.1,0.3-0.1,0.5l18.8-14.4l2.1-1.6L112.3,276.4z"/>
		<polygon class="st19" points="90.2,287.3 89.9,284 89.8,282.3 82.3,302.4 90.8,295.9 		"/>
		<polygon class="st19" points="90.8,295.9 82.3,302.4 90.8,295.9 		"/>
		<polygon class="st19" points="126.7,268.4 128.9,266.8 128.9,266.8 		"/>
		<path class="st20" d="M91.4,304.9C91.4,304.9,91.4,304.9,91.4,304.9C91.4,304.9,91.4,304.9,91.4,304.9z"/>
		<polygon class="st20" points="91.8,306.5 91.8,306.5 91.8,306.5 		"/>
		<path class="st20" d="M107.8,284.7c0-0.3,0-0.6,0-0.9C107.8,284.2,107.8,284.4,107.8,284.7z"/>
		<path class="st20" d="M107.8,283.7c0-0.3,0-0.6,0.1-0.9C107.9,283.1,107.8,283.4,107.8,283.7z"/>
		<polygon class="st20" points="91.4,304.4 90.8,295.9 90.8,295.9 		"/>
		<path class="st20" d="M91.5,305.4C91.5,305.4,91.5,305.4,91.5,305.4C91.5,305.4,91.5,305.4,91.5,305.4z"/>
		<polygon class="st20" points="153.2,292.2 153.2,292.2 152.1,268.3 		"/>
		<polygon class="st20" points="107.9,282.8 126.7,268.4 107.9,282.8 		"/>
		<path class="st20" d="M82.3,302.4l9.5,4.1c0,0,0,0,0,0c-0.1-0.3-0.2-0.7-0.3-1c0,0,0,0,0,0c0-0.2-0.1-0.3-0.1-0.5c0,0,0,0,0-0.1
			c0-0.2,0-0.4-0.1-0.5l-0.6-8.4L82.3,302.4z"/>
		<polygon class="st20" points="133.3,324.3 154.9,333.6 154,312.3 142.9,318.7 		"/>
		<path class="st20" d="M128.9,266.8l-2.1,1.6l-18.8,14.4l0,0c0,0.3-0.1,0.6-0.1,0.9c0,0.1,0,0.1,0,0.2c0,0.3,0,0.6,0,0.9l0.7,9.1
			c0.2,2.9,1.8,5.5,4.3,7l8.1,4.8c2.8,1.7,6.2,1.7,9,0.1l23.3-13.4l-1-24l-0.6-14.5L128.9,266.8z"/>
		<polygon class="st20" points="133.3,324.3 133.3,324.3 154.9,333.6 		"/>
		<path class="st21" d="M155.5,239.1c0.2,0.2,0.3,0.4,0.4,0.6C155.8,239.5,155.7,239.3,155.5,239.1z"/>
		<path class="st21" d="M153.7,237.6c0.1,0,0.1,0.1,0.2,0.1C153.8,237.7,153.7,237.6,153.7,237.6z"/>
		<path class="st21" d="M155,238.6c0.1,0.1,0.2,0.2,0.4,0.4C155.2,238.8,155.1,238.7,155,238.6z"/>
		<polygon class="st21" points="157.7,245.1 157.7,245.1 157.7,245.1 		"/>
		<path class="st21" d="M154.4,238.1c0.1,0.1,0.2,0.2,0.3,0.2C154.6,238.3,154.5,238.2,154.4,238.1z"/>
		<path class="st21" d="M156.5,240.6c0.1,0.2,0.3,0.5,0.4,0.7C156.8,241,156.6,240.8,156.5,240.6z"/>
		<path class="st21" d="M156.1,239.9c0.2,0.2,0.3,0.4,0.4,0.7C156.4,240.3,156.2,240.1,156.1,239.9z"/>
		<path class="st21" d="M157,241.5c0.1,0.2,0.2,0.4,0.2,0.6C157.1,241.9,157.1,241.7,157,241.5z"/>
		<path class="st21" d="M157.7,244.5C157.7,244.5,157.7,244.5,157.7,244.5C157.7,244.5,157.7,244.5,157.7,244.5z"/>
		<path class="st21" d="M157.5,243.3c0,0.1,0,0.2,0,0.2C157.6,243.4,157.5,243.3,157.5,243.3z"/>
		<path class="st21" d="M157.3,242.4c0,0.2,0.1,0.3,0.1,0.5C157.4,242.7,157.4,242.5,157.3,242.4z"/>
		<polygon class="st21" points="190.1,221.8 190.1,221.8 184.3,226 		"/>
		<path class="st21" d="M153.3,237.3c0.1,0.1,0.3,0.2,0.4,0.3c0.1,0,0.1,0.1,0.2,0.1c0.2,0.1,0.4,0.3,0.6,0.4
			c0.1,0.1,0.2,0.2,0.3,0.2c0.1,0.1,0.2,0.2,0.3,0.2c0.1,0.1,0.2,0.2,0.4,0.4c0.1,0.1,0.1,0.1,0.2,0.2c0.2,0.2,0.3,0.4,0.4,0.6
			c0,0.1,0.1,0.1,0.1,0.2c0.2,0.2,0.3,0.4,0.4,0.7l0,0c0.1,0.2,0.3,0.5,0.4,0.7c0,0.1,0.1,0.1,0.1,0.2c0.1,0.2,0.2,0.4,0.2,0.6
			c0,0.1,0.1,0.2,0.1,0.3c0,0.2,0.1,0.3,0.1,0.5c0,0.1,0.1,0.3,0.1,0.4c0,0.1,0,0.2,0,0.2c0.1,0.3,0.1,0.6,0.1,1c0,0,0,0,0,0
			c0,0.2,0,0.4,0,0.6l0,0l26.6-19.1l5.8-4.2l-31.5-18.2L153.3,237.3z"/>
		<polygon class="st17" points="94.4,347.8 94.4,347.8 94.4,347.8 102.3,352.4 		"/>
		<path class="st17" d="M93.3,309.3C93.3,309.3,93.3,309.3,93.3,309.3C93.3,309.3,93.3,309.3,93.3,309.3z"/>
		<path class="st17" d="M92.1,307.2c0,0,0,0.1,0.1,0.1C92.1,307.3,92.1,307.2,92.1,307.2z"/>
		<path class="st17" d="M93.8,309.8c0,0,0.1,0.1,0.1,0.1C93.8,309.9,93.8,309.8,93.8,309.8z"/>
		<path class="st17" d="M95,310.9c0,0,0.1,0.1,0.1,0.1C95.1,310.9,95,310.9,95,310.9z"/>
		<circle class="st17" cx="91.8" cy="306.5" r="0"/>
		<path class="st17" d="M92.8,308.6c0,0,0.1,0.1,0.1,0.1C92.9,308.6,92.8,308.6,92.8,308.6z"/>
		<path class="st17" d="M94.4,310.4C94.4,310.4,94.4,310.4,94.4,310.4C94.4,310.4,94.4,310.4,94.4,310.4z"/>
		<polygon class="st17" points="91.8,306.5 82.3,302.4 91.8,306.5 		"/>
		<path class="st17" d="M120.7,326.3l-2.5-1.5l-7.8-4.7l-14.7-8.7c-0.2-0.1-0.4-0.3-0.6-0.4c0,0-0.1-0.1-0.1-0.1
			c-0.2-0.1-0.4-0.3-0.6-0.4c0,0,0,0,0,0c-0.2-0.2-0.4-0.3-0.5-0.5c0,0-0.1-0.1-0.1-0.1c-0.2-0.2-0.3-0.3-0.5-0.5c0,0,0,0,0,0
			c-0.1-0.2-0.3-0.4-0.4-0.6c0,0-0.1-0.1-0.1-0.1c-0.3-0.4-0.5-0.8-0.7-1.3c0,0,0-0.1-0.1-0.1c-0.1-0.2-0.2-0.4-0.3-0.7c0,0,0,0,0,0
			l-9.5-4.1l12.1,45.4l7.8,4.5l9.3,5.4l43.3-24.1l-21.7-9.3l-3.5,2C127,328,123.5,327.9,120.7,326.3z"/>
		<polygon class="st17" points="94.4,347.8 94.4,347.8 82.3,302.4 		"/>
		<polygon class="st22" points="52.2,323.4 94.4,347.8 94.4,347.8 		"/>
		<polygon class="st22" points="52.2,309.5 52.2,323.4 94.4,347.8 82.3,302.4 		"/>
		<polygon class="st23" points="89.8,282.3 89.3,274.9 89.8,282.3 89.8,282.3 		"/>
		<polygon class="st23" points="105,241.8 96.3,265 96.3,265 		"/>
		<polygon class="st23" points="89.8,282.3 82.3,302.4 89.8,282.3 		"/>
		<path class="st23" d="M82.3,302.4l7.5-20.1l-0.5-7.4c-0.2-3.4,1.5-6.6,4.4-8.4l2.6-1.5l8.7-23.3l-33.7-20l-8.6,5L82.3,302.4z"/>
		<polygon class="st23" points="52.2,309.5 82.3,302.4 52.2,309.5 		"/>
		<polygon class="st23" points="52.2,309.5 82.3,302.4 52.2,274.3 		"/>
		<polygon class="st23" points="52.2,274.3 82.3,302.4 52.2,274.3 		"/>
		<polygon class="st21" points="62.7,226.7 62.7,226.7 82.3,302.4 		"/>
		<polygon class="st21" points="82.3,302.4 62.7,226.7 52.2,232.8 52.2,274.3 		"/>
		<polygon class="st21" points="62.7,226.7 62.7,226.7 82.3,302.4 		"/>
		<polygon class="st24" points="122.3,363.9 120,362.6 122.3,363.9 122.3,363.9 		"/>
		<polygon class="st24" points="111.6,357.7 154.9,333.6 111.6,357.7 		"/>
		<polygon class="st24" points="120,362.6 122.3,363.9 122.7,363.9 126.3,363.8 136.8,363.4 140.2,363.3 171.6,345.1 154.9,333.6 
			111.6,357.7 		"/>
		<polygon class="st24" points="122.3,363.9 122.3,363.9 122.7,363.9 		"/>
		<polygon class="st24" points="140.2,363.3 140.2,363.3 136.8,363.4 		"/>
		<polygon class="st24" points="171.6,345.1 154.9,333.6 171.6,345.1 		"/>
		<polygon class="st25" points="122.3,363.9 122.3,363.9 130.7,368.8 		"/>
		<polygon class="st25" points="126.3,363.8 132.6,363.6 126.3,363.8 123.4,363.9 		"/>
		<polygon class="st25" points="126.3,363.8 123.4,363.9 122.3,363.9 130.7,368.8 140.2,363.3 137.3,363.4 		"/>
		<polygon class="st25" points="137.3,363.4 132.6,363.6 126.3,363.8 		"/>
		<polygon class="st25" points="136.8,363.4 126.3,363.8 132.6,363.6 		"/>
		<polygon class="st25" points="140.2,363.3 140.2,363.3 137.3,363.4 		"/>
		<polygon class="st25" points="132.6,363.6 137.3,363.4 140.2,363.3 140.2,363.3 136.8,363.4 		"/>
		<polygon class="st25" points="209.2,323.4 209.2,281.9 209.2,281.9 		"/>
		<polygon class="st25" points="209.2,323.4 209.2,281.9 154.9,333.6 171.6,345.1 		"/>
		<polygon class="st25" points="171.6,345.1 154.9,333.6 171.6,345.1 		"/>
		<polygon class="st25" points="171.6,345.1 154.9,333.6 171.6,345.1 		"/>
		<path class="st26" d="M157,248.4C157,248.4,157,248.4,157,248.4C157,248.4,157,248.4,157,248.4z"/>
		<polygon class="st26" points="156,250.2 156,250.2 156,250.2 		"/>
		<path class="st26" d="M157.3,247.7C157.3,247.7,157.3,247.8,157.3,247.7C157.3,247.8,157.3,247.7,157.3,247.7z"/>
		
			<ellipse transform="matrix(6.435931e-02 -0.9979 0.9979 6.435931e-02 -97.0123 386.6588)" class="st26" cx="157.7" cy="245.1" rx="0" ry="0"/>
		<polygon class="st26" points="190.1,221.8 209.2,232.8 190.1,221.8 190.1,221.8 		"/>
		<polygon class="st26" points="190.1,221.8 190.1,221.8 164.9,239.9 157.7,245.1 		"/>
		<polygon class="st26" points="157.7,245.1 164.9,239.9 157.7,245.1 		"/>
		<path class="st26" d="M157.7,245.1c0,0.9-0.2,1.8-0.4,2.6c0,0,0,0.1,0,0.1c-0.1,0.2-0.1,0.4-0.2,0.6c0,0,0,0,0,0
			c-0.3,0.6-0.6,1.2-1,1.8c0,0,0,0,0,0l53.1,6.1l0-23.5l-19.1-11L157.7,245.1L157.7,245.1z"/>
		<polygon class="st28" points="102.8,203.5 71.3,221.8 105,241.8 		"/>
		<polygon class="st28" points="102.8,203.5 105,241.8 102.8,203.5 		"/>
		<polygon class="st29" points="129.4,245.9 105,241.8 129.4,245.9 		"/>
		<polygon class="st29" points="141.9,238.7 113.1,205.2 108.8,200.1 102.8,203.5 105,241.8 129.4,245.9 		"/>
		<polygon class="st29" points="113.1,205.2 141.9,238.7 141.9,238.7 		"/>
		<polygon class="st29" points="102.8,203.5 105,241.8 102.8,203.5 		"/>
		<path class="st19" d="M147.8,236.2c0.2,0,0.4,0,0.6,0C148.2,236.1,148,236.1,147.8,236.2z"/>
		<path class="st19" d="M146,236.5c0.2-0.1,0.5-0.1,0.7-0.2C146.5,236.4,146.2,236.5,146,236.5z"/>
		<path class="st19" d="M150.5,236.3c0.1,0,0.2,0,0.3,0.1C150.7,236.3,150.6,236.3,150.5,236.3z"/>
		<path class="st19" d="M144.3,237.3c0.2-0.1,0.5-0.3,0.7-0.4C144.8,237,144.6,237.2,144.3,237.3z"/>
		<path class="st19" d="M145.2,236.8c0.2-0.1,0.5-0.2,0.7-0.3C145.7,236.6,145.5,236.7,145.2,236.8z"/>
		<path class="st19" d="M152.2,236.8c0.1,0,0.1,0,0.2,0.1C152.3,236.8,152.2,236.8,152.2,236.8z"/>
		<path class="st19" d="M148.7,236.1c0.1,0,0.3,0,0.4,0C149,236.1,148.9,236.1,148.7,236.1z"/>
		<path class="st19" d="M149.7,236.1c0.1,0,0.3,0,0.4,0C149.9,236.2,149.8,236.2,149.7,236.1z"/>
		<path class="st19" d="M147,236.3c0.2,0,0.4-0.1,0.6-0.1C147.4,236.2,147.2,236.2,147,236.3z"/>
		<path class="st19" d="M151.6,236.6c0,0,0.1,0,0.1,0C151.7,236.6,151.6,236.6,151.6,236.6z"/>
		<polygon class="st19" points="158.6,203.6 158.6,203.6 153.3,237.3 153.3,237.3 		"/>
		<polygon class="st19" points="108.8,200.1 108.8,200.1 113.1,205.2 		"/>
		<path class="st19" d="M141.9,238.7l2.4-1.4c0.2-0.1,0.5-0.3,0.7-0.4c0.1,0,0.1-0.1,0.2-0.1c0.2-0.1,0.5-0.2,0.7-0.3c0,0,0,0,0.1,0
			c0.2-0.1,0.5-0.1,0.7-0.2c0.1,0,0.2,0,0.2-0.1c0.2,0,0.4-0.1,0.6-0.1c0.1,0,0.1,0,0.2,0c0.2,0,0.4,0,0.6,0c0.1,0,0.2,0,0.3,0
			c0.1,0,0.3,0,0.4,0c0.2,0,0.3,0,0.5,0c0.1,0,0.3,0,0.4,0c0.1,0,0.3,0,0.4,0.1c0.1,0,0.2,0,0.3,0.1c0.3,0.1,0.5,0.1,0.8,0.2
			c0,0,0.1,0,0.1,0c0.2,0.1,0.3,0.1,0.5,0.2c0.1,0,0.1,0,0.2,0.1c0.3,0.1,0.6,0.3,0.9,0.5l5.4-33.7l-28-16.1l-21.9,12.7l4.4,5.1
			L141.9,238.7z"/>
		<polygon class="st27" points="209.2,281.8 209.2,280.5 154.1,312.3 154.9,333.6 		"/>
	</g>
	<g>
		<path d="M223.3,323v-89.5h66.3v15.1h-48.3v19.8h44.9v15.1h-44.9v24.4h50V323H223.3z"/>
		<path d="M336.2,258.1v13.7h-11.7v26.1c0,5.3,0.1,8.4,0.3,9.2c0.2,0.9,0.7,1.6,1.5,2.2c0.8,0.6,1.8,0.9,2.9,0.9
			c1.6,0,3.9-0.5,6.9-1.6l1.5,13.3c-4,1.7-8.5,2.6-13.5,2.6c-3.1,0-5.9-0.5-8.4-1.6c-2.5-1-4.3-2.4-5.5-4c-1.2-1.6-2-3.9-2.4-6.7
			c-0.4-2-0.5-6-0.5-12.1v-28.3h-7.9v-13.7h7.9v-12.9l17.2-10v22.9H336.2z"/>
		<path d="M361,277.9l-15.6-2.8c1.7-6.3,4.8-10.9,9-13.9c4.3-3,10.6-4.5,19-4.5c7.6,0,13.3,0.9,17.1,2.7c3.7,1.8,6.4,4.1,7.9,6.9
			c1.5,2.8,2.3,7.9,2.3,15.4l-0.2,20c0,5.7,0.3,9.9,0.8,12.6c0.5,2.7,1.6,5.6,3.1,8.7h-17c-0.4-1.1-1-2.8-1.6-5.1
			c-0.3-1-0.5-1.7-0.6-2c-2.9,2.8-6.1,5-9.4,6.4c-3.3,1.4-6.9,2.1-10.7,2.1c-6.7,0-11.9-1.8-15.8-5.4c-3.8-3.6-5.8-8.2-5.8-13.7
			c0-3.7,0.9-6.9,2.6-9.8c1.7-2.9,4.2-5.1,7.4-6.6c3.2-1.5,7.7-2.9,13.6-4c8-1.5,13.6-2.9,16.7-4.2V279c0-3.3-0.8-5.6-2.4-7
			c-1.6-1.4-4.7-2.1-9.2-2.1c-3.1,0-5.4,0.6-7.1,1.8C363.4,272.8,362,274.9,361,277.9z M383.9,291.8c-2.2,0.7-5.7,1.6-10.4,2.6
			c-4.8,1-7.9,2-9.3,3c-2.2,1.6-3.4,3.6-3.4,6c0,2.4,0.9,4.5,2.7,6.2c1.8,1.8,4.1,2.6,6.8,2.6c3.1,0,6-1,8.9-3.1
			c2.1-1.5,3.4-3.4,4.1-5.7c0.4-1.5,0.7-4.3,0.7-8.4V291.8z"/>
		<path d="M474.2,277.3l-16.9,3.1c-0.6-3.4-1.9-5.9-3.9-7.6c-2-1.7-4.6-2.6-7.8-2.6c-4.3,0-7.7,1.5-10.2,4.4s-3.8,7.9-3.8,14.8
			c0,7.7,1.3,13.1,3.9,16.3c2.6,3.2,6.1,4.8,10.4,4.8c3.3,0,5.9-0.9,8-2.8c2.1-1.9,3.5-5,4.4-9.6L475,301
			c-1.8,7.7-5.1,13.6-10.1,17.5c-5,3.9-11.6,5.9-20,5.9c-9.5,0-17-3-22.7-9c-5.6-6-8.5-14.3-8.5-24.8c0-10.7,2.8-19,8.5-25
			c5.7-6,13.3-8.9,22.9-8.9c7.9,0,14.2,1.7,18.8,5.1S472.1,270.4,474.2,277.3z"/>
		<path d="M516.9,258.1v13.7h-11.7v26.1c0,5.3,0.1,8.4,0.3,9.2c0.2,0.9,0.7,1.6,1.5,2.2c0.8,0.6,1.8,0.9,2.9,0.9
			c1.6,0,3.9-0.5,6.9-1.6l1.5,13.3c-4,1.7-8.5,2.6-13.5,2.6c-3.1,0-5.9-0.5-8.4-1.6c-2.5-1-4.3-2.4-5.5-4c-1.2-1.6-2-3.9-2.4-6.7
			c-0.4-2-0.5-6-0.5-12.1v-28.3h-7.9v-13.7h7.9v-12.9l17.2-10v22.9H516.9z"/>
		<path d="M528.8,249.4v-15.9H546v15.9H528.8z M528.8,323v-64.8H546V323H528.8z"/>
		<path d="M620.1,277.3l-16.9,3.1c-0.6-3.4-1.9-5.9-3.9-7.6c-2-1.7-4.6-2.6-7.8-2.6c-4.3,0-7.7,1.5-10.2,4.4s-3.8,7.9-3.8,14.8
			c0,7.7,1.3,13.1,3.9,16.3c2.6,3.2,6.1,4.8,10.4,4.8c3.3,0,5.9-0.9,8-2.8c2.1-1.9,3.5-5,4.4-9.6l16.8,2.9
			c-1.8,7.7-5.1,13.6-10.1,17.5c-5,3.9-11.6,5.9-20,5.9c-9.5,0-17-3-22.7-9c-5.6-6-8.5-14.3-8.5-24.8c0-10.7,2.8-19,8.5-25
			c5.7-6,13.3-8.9,22.9-8.9c7.9,0,14.2,1.7,18.8,5.1S618,270.4,620.1,277.3z"/>
		<path d="M627,304.5l17.2-2.6c0.7,3.3,2.2,5.9,4.5,7.6c2.2,1.7,5.4,2.6,9.4,2.6c4.4,0,7.8-0.8,10-2.4c1.5-1.1,2.3-2.7,2.3-4.6
			c0-1.3-0.4-2.4-1.2-3.2c-0.9-0.8-2.8-1.6-5.7-2.3c-13.8-3.1-22.6-5.8-26.3-8.4c-5.1-3.5-7.7-8.4-7.7-14.6c0-5.6,2.2-10.3,6.7-14.2
			c4.4-3.8,11.3-5.7,20.6-5.7c8.9,0,15.5,1.4,19.8,4.3c4.3,2.9,7.3,7.2,8.9,12.8l-16.2,3c-0.7-2.5-2-4.5-3.9-5.8s-4.7-2-8.3-2
			c-4.5,0-7.8,0.6-9.7,1.9c-1.3,0.9-2,2.1-2,3.5c0,1.2,0.6,2.3,1.7,3.1c1.5,1.1,6.9,2.7,16,4.8s15.5,4.6,19.1,7.6
			c3.6,3.1,5.4,7.3,5.4,12.8c0,5.9-2.5,11-7.4,15.3c-5,4.3-12.3,6.4-22,6.4c-8.8,0-15.8-1.8-21-5.4C632,315.5,628.6,310.6,627,304.5
			z"/>
	</g>
</g>
</svg>
